<?xml version="1.0" encoding="utf-8" standalone="no"?>
<!DOCTYPE svg PUBLIC "-//W3C//DTD SVG 1.1//EN"
  "http://www.w3.org/Graphics/SVG/1.1/DTD/svg11.dtd">
<!-- Created with matplotlib (https://matplotlib.org/) -->
<svg height="288pt" version="1.1" viewBox="0 0 432 288" width="432pt" xmlns="http://www.w3.org/2000/svg" xmlns:xlink="http://www.w3.org/1999/xlink">
 <defs>
  <style type="text/css">
*{stroke-linecap:butt;stroke-linejoin:round;}
  </style>
 </defs>
 <g id="figure_1">
  <g id="patch_1">
   <path d="M 0 288 
L 432 288 
L 432 0 
L 0 0 
z
" style="fill:#ffffff;"/>
  </g>
  <g id="axes_1">
   <g id="patch_2">
    <path d="M 54 252 
L 388.8 252 
L 388.8 34.56 
L 54 34.56 
z
" style="fill:#ffffff;"/>
   </g>
   <g id="patch_3">
    <path clip-path="url(#pcb26660215)" d="M 69.218182 252 
L 72.261818 252 
L 72.261818 133.151909 
L 69.218182 133.151909 
z
" style="fill:#1f77b4;"/>
   </g>
   <g id="patch_4">
    <path clip-path="url(#pcb26660215)" d="M 72.261818 252 
L 75.305455 252 
L 75.305455 73.727863 
L 72.261818 73.727863 
z
" style="fill:#1f77b4;"/>
   </g>
   <g id="patch_5">
    <path clip-path="url(#pcb26660215)" d="M 75.305455 252 
L 78.349091 252 
L 78.349091 113.343893 
L 75.305455 113.343893 
z
" style="fill:#1f77b4;"/>
   </g>
   <g id="patch_6">
    <path clip-path="url(#pcb26660215)" d="M 78.349091 252 
L 81.392727 252 
L 81.392727 232.191985 
L 78.349091 232.191985 
z
" style="fill:#1f77b4;"/>
   </g>
   <g id="patch_7">
    <path clip-path="url(#pcb26660215)" d="M 81.392727 252 
L 84.436364 252 
L 84.436364 232.191985 
L 81.392727 232.191985 
z
" style="fill:#1f77b4;"/>
   </g>
   <g id="patch_8">
    <path clip-path="url(#pcb26660215)" d="M 84.436364 252 
L 87.48 252 
L 87.48 172.767939 
L 84.436364 172.767939 
z
" style="fill:#1f77b4;"/>
   </g>
   <g id="patch_9">
    <path clip-path="url(#pcb26660215)" d="M 87.48 252 
L 90.523636 252 
L 90.523636 152.959924 
L 87.48 152.959924 
z
" style="fill:#1f77b4;"/>
   </g>
   <g id="patch_10">
    <path clip-path="url(#pcb26660215)" d="M 90.523636 252 
L 93.567273 252 
L 93.567273 133.151909 
L 90.523636 133.151909 
z
" style="fill:#1f77b4;"/>
   </g>
   <g id="patch_11">
    <path clip-path="url(#pcb26660215)" d="M 93.567273 252 
L 96.610909 252 
L 96.610909 192.575954 
L 93.567273 192.575954 
z
" style="fill:#1f77b4;"/>
   </g>
   <g id="patch_12">
    <path clip-path="url(#pcb26660215)" d="M 96.610909 252 
L 99.654545 252 
L 99.654545 232.191985 
L 96.610909 232.191985 
z
" style="fill:#1f77b4;"/>
   </g>
   <g id="patch_13">
    <path clip-path="url(#pcb26660215)" d="M 99.654545 252 
L 102.698182 252 
L 102.698182 212.38397 
L 99.654545 212.38397 
z
" style="fill:#1f77b4;"/>
   </g>
   <g id="patch_14">
    <path clip-path="url(#pcb26660215)" d="M 102.698182 252 
L 105.741818 252 
L 105.741818 212.38397 
L 102.698182 212.38397 
z
" style="fill:#1f77b4;"/>
   </g>
   <g id="patch_15">
    <path clip-path="url(#pcb26660215)" d="M 105.741818 252 
L 108.785455 252 
L 108.785455 212.38397 
L 105.741818 212.38397 
z
" style="fill:#1f77b4;"/>
   </g>
   <g id="patch_16">
    <path clip-path="url(#pcb26660215)" d="M 108.785455 252 
L 111.829091 252 
L 111.829091 252 
L 108.785455 252 
z
" style="fill:#1f77b4;"/>
   </g>
   <g id="patch_17">
    <path clip-path="url(#pcb26660215)" d="M 111.829091 252 
L 114.872727 252 
L 114.872727 212.38397 
L 111.829091 212.38397 
z
" style="fill:#1f77b4;"/>
   </g>
   <g id="patch_18">
    <path clip-path="url(#pcb26660215)" d="M 114.872727 252 
L 117.916364 252 
L 117.916364 252 
L 114.872727 252 
z
" style="fill:#1f77b4;"/>
   </g>
   <g id="patch_19">
    <path clip-path="url(#pcb26660215)" d="M 117.916364 252 
L 120.96 252 
L 120.96 232.191985 
L 117.916364 232.191985 
z
" style="fill:#1f77b4;"/>
   </g>
   <g id="patch_20">
    <path clip-path="url(#pcb26660215)" d="M 120.96 252 
L 124.003636 252 
L 124.003636 252 
L 120.96 252 
z
" style="fill:#1f77b4;"/>
   </g>
   <g id="patch_21">
    <path clip-path="url(#pcb26660215)" d="M 124.003636 252 
L 127.047273 252 
L 127.047273 232.191985 
L 124.003636 232.191985 
z
" style="fill:#1f77b4;"/>
   </g>
   <g id="patch_22">
    <path clip-path="url(#pcb26660215)" d="M 127.047273 252 
L 130.090909 252 
L 130.090909 192.575954 
L 127.047273 192.575954 
z
" style="fill:#1f77b4;"/>
   </g>
   <g id="patch_23">
    <path clip-path="url(#pcb26660215)" d="M 130.090909 252 
L 133.134545 252 
L 133.134545 212.38397 
L 130.090909 212.38397 
z
" style="fill:#1f77b4;"/>
   </g>
   <g id="patch_24">
    <path clip-path="url(#pcb26660215)" d="M 133.134545 252 
L 136.178182 252 
L 136.178182 252 
L 133.134545 252 
z
" style="fill:#1f77b4;"/>
   </g>
   <g id="patch_25">
    <path clip-path="url(#pcb26660215)" d="M 136.178182 252 
L 139.221818 252 
L 139.221818 212.38397 
L 136.178182 212.38397 
z
" style="fill:#1f77b4;"/>
   </g>
   <g id="patch_26">
    <path clip-path="url(#pcb26660215)" d="M 139.221818 252 
L 142.265455 252 
L 142.265455 232.191985 
L 139.221818 232.191985 
z
" style="fill:#1f77b4;"/>
   </g>
   <g id="patch_27">
    <path clip-path="url(#pcb26660215)" d="M 142.265455 252 
L 145.309091 252 
L 145.309091 192.575954 
L 142.265455 192.575954 
z
" style="fill:#1f77b4;"/>
   </g>
   <g id="patch_28">
    <path clip-path="url(#pcb26660215)" d="M 145.309091 252 
L 148.352727 252 
L 148.352727 252 
L 145.309091 252 
z
" style="fill:#1f77b4;"/>
   </g>
   <g id="patch_29">
    <path clip-path="url(#pcb26660215)" d="M 148.352727 252 
L 151.396364 252 
L 151.396364 232.191985 
L 148.352727 232.191985 
z
" style="fill:#1f77b4;"/>
   </g>
   <g id="patch_30">
    <path clip-path="url(#pcb26660215)" d="M 151.396364 252 
L 154.44 252 
L 154.44 252 
L 151.396364 252 
z
" style="fill:#1f77b4;"/>
   </g>
   <g id="patch_31">
    <path clip-path="url(#pcb26660215)" d="M 154.44 252 
L 157.483636 252 
L 157.483636 212.38397 
L 154.44 212.38397 
z
" style="fill:#1f77b4;"/>
   </g>
   <g id="patch_32">
    <path clip-path="url(#pcb26660215)" d="M 157.483636 252 
L 160.527273 252 
L 160.527273 232.191985 
L 157.483636 232.191985 
z
" style="fill:#1f77b4;"/>
   </g>
   <g id="patch_33">
    <path clip-path="url(#pcb26660215)" d="M 160.527273 252 
L 163.570909 252 
L 163.570909 232.191985 
L 160.527273 232.191985 
z
" style="fill:#1f77b4;"/>
   </g>
   <g id="patch_34">
    <path clip-path="url(#pcb26660215)" d="M 163.570909 252 
L 166.614545 252 
L 166.614545 252 
L 163.570909 252 
z
" style="fill:#1f77b4;"/>
   </g>
   <g id="patch_35">
    <path clip-path="url(#pcb26660215)" d="M 166.614545 252 
L 169.658182 252 
L 169.658182 252 
L 166.614545 252 
z
" style="fill:#1f77b4;"/>
   </g>
   <g id="patch_36">
    <path clip-path="url(#pcb26660215)" d="M 169.658182 252 
L 172.701818 252 
L 172.701818 232.191985 
L 169.658182 232.191985 
z
" style="fill:#1f77b4;"/>
   </g>
   <g id="patch_37">
    <path clip-path="url(#pcb26660215)" d="M 172.701818 252 
L 175.745455 252 
L 175.745455 232.191985 
L 172.701818 232.191985 
z
" style="fill:#1f77b4;"/>
   </g>
   <g id="patch_38">
    <path clip-path="url(#pcb26660215)" d="M 175.745455 252 
L 178.789091 252 
L 178.789091 252 
L 175.745455 252 
z
" style="fill:#1f77b4;"/>
   </g>
   <g id="patch_39">
    <path clip-path="url(#pcb26660215)" d="M 178.789091 252 
L 181.832727 252 
L 181.832727 252 
L 178.789091 252 
z
" style="fill:#1f77b4;"/>
   </g>
   <g id="patch_40">
    <path clip-path="url(#pcb26660215)" d="M 181.832727 252 
L 184.876364 252 
L 184.876364 252 
L 181.832727 252 
z
" style="fill:#1f77b4;"/>
   </g>
   <g id="patch_41">
    <path clip-path="url(#pcb26660215)" d="M 184.876364 252 
L 187.92 252 
L 187.92 252 
L 184.876364 252 
z
" style="fill:#1f77b4;"/>
   </g>
   <g id="patch_42">
    <path clip-path="url(#pcb26660215)" d="M 187.92 252 
L 190.963636 252 
L 190.963636 252 
L 187.92 252 
z
" style="fill:#1f77b4;"/>
   </g>
   <g id="patch_43">
    <path clip-path="url(#pcb26660215)" d="M 190.963636 252 
L 194.007273 252 
L 194.007273 252 
L 190.963636 252 
z
" style="fill:#1f77b4;"/>
   </g>
   <g id="patch_44">
    <path clip-path="url(#pcb26660215)" d="M 194.007273 252 
L 197.050909 252 
L 197.050909 252 
L 194.007273 252 
z
" style="fill:#1f77b4;"/>
   </g>
   <g id="patch_45">
    <path clip-path="url(#pcb26660215)" d="M 197.050909 252 
L 200.094545 252 
L 200.094545 252 
L 197.050909 252 
z
" style="fill:#1f77b4;"/>
   </g>
   <g id="patch_46">
    <path clip-path="url(#pcb26660215)" d="M 200.094545 252 
L 203.138182 252 
L 203.138182 252 
L 200.094545 252 
z
" style="fill:#1f77b4;"/>
   </g>
   <g id="patch_47">
    <path clip-path="url(#pcb26660215)" d="M 203.138182 252 
L 206.181818 252 
L 206.181818 232.191985 
L 203.138182 232.191985 
z
" style="fill:#1f77b4;"/>
   </g>
   <g id="patch_48">
    <path clip-path="url(#pcb26660215)" d="M 206.181818 252 
L 209.225455 252 
L 209.225455 252 
L 206.181818 252 
z
" style="fill:#1f77b4;"/>
   </g>
   <g id="patch_49">
    <path clip-path="url(#pcb26660215)" d="M 209.225455 252 
L 212.269091 252 
L 212.269091 232.191985 
L 209.225455 232.191985 
z
" style="fill:#1f77b4;"/>
   </g>
   <g id="patch_50">
    <path clip-path="url(#pcb26660215)" d="M 212.269091 252 
L 215.312727 252 
L 215.312727 252 
L 212.269091 252 
z
" style="fill:#1f77b4;"/>
   </g>
   <g id="patch_51">
    <path clip-path="url(#pcb26660215)" d="M 215.312727 252 
L 218.356364 252 
L 218.356364 252 
L 215.312727 252 
z
" style="fill:#1f77b4;"/>
   </g>
   <g id="patch_52">
    <path clip-path="url(#pcb26660215)" d="M 218.356364 252 
L 221.4 252 
L 221.4 232.191985 
L 218.356364 232.191985 
z
" style="fill:#1f77b4;"/>
   </g>
   <g id="patch_53">
    <path clip-path="url(#pcb26660215)" d="M 221.4 252 
L 224.443636 252 
L 224.443636 252 
L 221.4 252 
z
" style="fill:#1f77b4;"/>
   </g>
   <g id="patch_54">
    <path clip-path="url(#pcb26660215)" d="M 224.443636 252 
L 227.487273 252 
L 227.487273 252 
L 224.443636 252 
z
" style="fill:#1f77b4;"/>
   </g>
   <g id="patch_55">
    <path clip-path="url(#pcb26660215)" d="M 227.487273 252 
L 230.530909 252 
L 230.530909 252 
L 227.487273 252 
z
" style="fill:#1f77b4;"/>
   </g>
   <g id="patch_56">
    <path clip-path="url(#pcb26660215)" d="M 230.530909 252 
L 233.574545 252 
L 233.574545 252 
L 230.530909 252 
z
" style="fill:#1f77b4;"/>
   </g>
   <g id="patch_57">
    <path clip-path="url(#pcb26660215)" d="M 233.574545 252 
L 236.618182 252 
L 236.618182 252 
L 233.574545 252 
z
" style="fill:#1f77b4;"/>
   </g>
   <g id="patch_58">
    <path clip-path="url(#pcb26660215)" d="M 236.618182 252 
L 239.661818 252 
L 239.661818 252 
L 236.618182 252 
z
" style="fill:#1f77b4;"/>
   </g>
   <g id="patch_59">
    <path clip-path="url(#pcb26660215)" d="M 239.661818 252 
L 242.705455 252 
L 242.705455 252 
L 239.661818 252 
z
" style="fill:#1f77b4;"/>
   </g>
   <g id="patch_60">
    <path clip-path="url(#pcb26660215)" d="M 242.705455 252 
L 245.749091 252 
L 245.749091 252 
L 242.705455 252 
z
" style="fill:#1f77b4;"/>
   </g>
   <g id="patch_61">
    <path clip-path="url(#pcb26660215)" d="M 245.749091 252 
L 248.792727 252 
L 248.792727 252 
L 245.749091 252 
z
" style="fill:#1f77b4;"/>
   </g>
   <g id="patch_62">
    <path clip-path="url(#pcb26660215)" d="M 248.792727 252 
L 251.836364 252 
L 251.836364 252 
L 248.792727 252 
z
" style="fill:#1f77b4;"/>
   </g>
   <g id="patch_63">
    <path clip-path="url(#pcb26660215)" d="M 251.836364 252 
L 254.88 252 
L 254.88 252 
L 251.836364 252 
z
" style="fill:#1f77b4;"/>
   </g>
   <g id="patch_64">
    <path clip-path="url(#pcb26660215)" d="M 254.88 252 
L 257.923636 252 
L 257.923636 252 
L 254.88 252 
z
" style="fill:#1f77b4;"/>
   </g>
   <g id="patch_65">
    <path clip-path="url(#pcb26660215)" d="M 257.923636 252 
L 260.967273 252 
L 260.967273 252 
L 257.923636 252 
z
" style="fill:#1f77b4;"/>
   </g>
   <g id="patch_66">
    <path clip-path="url(#pcb26660215)" d="M 260.967273 252 
L 264.010909 252 
L 264.010909 252 
L 260.967273 252 
z
" style="fill:#1f77b4;"/>
   </g>
   <g id="patch_67">
    <path clip-path="url(#pcb26660215)" d="M 264.010909 252 
L 267.054545 252 
L 267.054545 252 
L 264.010909 252 
z
" style="fill:#1f77b4;"/>
   </g>
   <g id="patch_68">
    <path clip-path="url(#pcb26660215)" d="M 267.054545 252 
L 270.098182 252 
L 270.098182 252 
L 267.054545 252 
z
" style="fill:#1f77b4;"/>
   </g>
   <g id="patch_69">
    <path clip-path="url(#pcb26660215)" d="M 270.098182 252 
L 273.141818 252 
L 273.141818 232.191985 
L 270.098182 232.191985 
z
" style="fill:#1f77b4;"/>
   </g>
   <g id="patch_70">
    <path clip-path="url(#pcb26660215)" d="M 273.141818 252 
L 276.185455 252 
L 276.185455 252 
L 273.141818 252 
z
" style="fill:#1f77b4;"/>
   </g>
   <g id="patch_71">
    <path clip-path="url(#pcb26660215)" d="M 276.185455 252 
L 279.229091 252 
L 279.229091 252 
L 276.185455 252 
z
" style="fill:#1f77b4;"/>
   </g>
   <g id="patch_72">
    <path clip-path="url(#pcb26660215)" d="M 279.229091 252 
L 282.272727 252 
L 282.272727 252 
L 279.229091 252 
z
" style="fill:#1f77b4;"/>
   </g>
   <g id="patch_73">
    <path clip-path="url(#pcb26660215)" d="M 282.272727 252 
L 285.316364 252 
L 285.316364 252 
L 282.272727 252 
z
" style="fill:#1f77b4;"/>
   </g>
   <g id="patch_74">
    <path clip-path="url(#pcb26660215)" d="M 285.316364 252 
L 288.36 252 
L 288.36 252 
L 285.316364 252 
z
" style="fill:#1f77b4;"/>
   </g>
   <g id="patch_75">
    <path clip-path="url(#pcb26660215)" d="M 288.36 252 
L 291.403636 252 
L 291.403636 252 
L 288.36 252 
z
" style="fill:#1f77b4;"/>
   </g>
   <g id="patch_76">
    <path clip-path="url(#pcb26660215)" d="M 291.403636 252 
L 294.447273 252 
L 294.447273 252 
L 291.403636 252 
z
" style="fill:#1f77b4;"/>
   </g>
   <g id="patch_77">
    <path clip-path="url(#pcb26660215)" d="M 294.447273 252 
L 297.490909 252 
L 297.490909 252 
L 294.447273 252 
z
" style="fill:#1f77b4;"/>
   </g>
   <g id="patch_78">
    <path clip-path="url(#pcb26660215)" d="M 297.490909 252 
L 300.534545 252 
L 300.534545 252 
L 297.490909 252 
z
" style="fill:#1f77b4;"/>
   </g>
   <g id="patch_79">
    <path clip-path="url(#pcb26660215)" d="M 300.534545 252 
L 303.578182 252 
L 303.578182 252 
L 300.534545 252 
z
" style="fill:#1f77b4;"/>
   </g>
   <g id="patch_80">
    <path clip-path="url(#pcb26660215)" d="M 303.578182 252 
L 306.621818 252 
L 306.621818 252 
L 303.578182 252 
z
" style="fill:#1f77b4;"/>
   </g>
   <g id="patch_81">
    <path clip-path="url(#pcb26660215)" d="M 306.621818 252 
L 309.665455 252 
L 309.665455 252 
L 306.621818 252 
z
" style="fill:#1f77b4;"/>
   </g>
   <g id="patch_82">
    <path clip-path="url(#pcb26660215)" d="M 309.665455 252 
L 312.709091 252 
L 312.709091 252 
L 309.665455 252 
z
" style="fill:#1f77b4;"/>
   </g>
   <g id="patch_83">
    <path clip-path="url(#pcb26660215)" d="M 312.709091 252 
L 315.752727 252 
L 315.752727 252 
L 312.709091 252 
z
" style="fill:#1f77b4;"/>
   </g>
   <g id="patch_84">
    <path clip-path="url(#pcb26660215)" d="M 315.752727 252 
L 318.796364 252 
L 318.796364 252 
L 315.752727 252 
z
" style="fill:#1f77b4;"/>
   </g>
   <g id="patch_85">
    <path clip-path="url(#pcb26660215)" d="M 318.796364 252 
L 321.84 252 
L 321.84 252 
L 318.796364 252 
z
" style="fill:#1f77b4;"/>
   </g>
   <g id="patch_86">
    <path clip-path="url(#pcb26660215)" d="M 321.84 252 
L 324.883636 252 
L 324.883636 252 
L 321.84 252 
z
" style="fill:#1f77b4;"/>
   </g>
   <g id="patch_87">
    <path clip-path="url(#pcb26660215)" d="M 324.883636 252 
L 327.927273 252 
L 327.927273 252 
L 324.883636 252 
z
" style="fill:#1f77b4;"/>
   </g>
   <g id="patch_88">
    <path clip-path="url(#pcb26660215)" d="M 327.927273 252 
L 330.970909 252 
L 330.970909 252 
L 327.927273 252 
z
" style="fill:#1f77b4;"/>
   </g>
   <g id="patch_89">
    <path clip-path="url(#pcb26660215)" d="M 330.970909 252 
L 334.014545 252 
L 334.014545 252 
L 330.970909 252 
z
" style="fill:#1f77b4;"/>
   </g>
   <g id="patch_90">
    <path clip-path="url(#pcb26660215)" d="M 334.014545 252 
L 337.058182 252 
L 337.058182 252 
L 334.014545 252 
z
" style="fill:#1f77b4;"/>
   </g>
   <g id="patch_91">
    <path clip-path="url(#pcb26660215)" d="M 337.058182 252 
L 340.101818 252 
L 340.101818 252 
L 337.058182 252 
z
" style="fill:#1f77b4;"/>
   </g>
   <g id="patch_92">
    <path clip-path="url(#pcb26660215)" d="M 340.101818 252 
L 343.145455 252 
L 343.145455 252 
L 340.101818 252 
z
" style="fill:#1f77b4;"/>
   </g>
   <g id="patch_93">
    <path clip-path="url(#pcb26660215)" d="M 343.145455 252 
L 346.189091 252 
L 346.189091 252 
L 343.145455 252 
z
" style="fill:#1f77b4;"/>
   </g>
   <g id="patch_94">
    <path clip-path="url(#pcb26660215)" d="M 346.189091 252 
L 349.232727 252 
L 349.232727 252 
L 346.189091 252 
z
" style="fill:#1f77b4;"/>
   </g>
   <g id="patch_95">
    <path clip-path="url(#pcb26660215)" d="M 349.232727 252 
L 352.276364 252 
L 352.276364 252 
L 349.232727 252 
z
" style="fill:#1f77b4;"/>
   </g>
   <g id="patch_96">
    <path clip-path="url(#pcb26660215)" d="M 352.276364 252 
L 355.32 252 
L 355.32 252 
L 352.276364 252 
z
" style="fill:#1f77b4;"/>
   </g>
   <g id="patch_97">
    <path clip-path="url(#pcb26660215)" d="M 355.32 252 
L 358.363636 252 
L 358.363636 252 
L 355.32 252 
z
" style="fill:#1f77b4;"/>
   </g>
   <g id="patch_98">
    <path clip-path="url(#pcb26660215)" d="M 358.363636 252 
L 361.407273 252 
L 361.407273 252 
L 358.363636 252 
z
" style="fill:#1f77b4;"/>
   </g>
   <g id="patch_99">
    <path clip-path="url(#pcb26660215)" d="M 361.407273 252 
L 364.450909 252 
L 364.450909 252 
L 361.407273 252 
z
" style="fill:#1f77b4;"/>
   </g>
   <g id="patch_100">
    <path clip-path="url(#pcb26660215)" d="M 364.450909 252 
L 367.494545 252 
L 367.494545 252 
L 364.450909 252 
z
" style="fill:#1f77b4;"/>
   </g>
   <g id="patch_101">
    <path clip-path="url(#pcb26660215)" d="M 367.494545 252 
L 370.538182 252 
L 370.538182 252 
L 367.494545 252 
z
" style="fill:#1f77b4;"/>
   </g>
   <g id="patch_102">
    <path clip-path="url(#pcb26660215)" d="M 370.538182 252 
L 373.581818 252 
L 373.581818 232.191985 
L 370.538182 232.191985 
z
" style="fill:#1f77b4;"/>
   </g>
   <g id="matplotlib.axis_1">
    <g id="xtick_1">
     <g id="line2d_1">
      <path clip-path="url(#pcb26660215)" d="M 58.693321 252 
L 58.693321 34.56 
" style="fill:none;stroke:#b0b0b0;stroke-linecap:square;stroke-width:0.8;"/>
     </g>
     <g id="line2d_2">
      <defs>
       <path d="M 0 0 
L 0 3.5 
" id="m35ac57db90" style="stroke:#000000;stroke-width:0.8;"/>
      </defs>
      <g>
       <use style="stroke:#000000;stroke-width:0.8;" x="58.693321" xlink:href="#m35ac57db90" y="252"/>
      </g>
     </g>
     <g id="text_1">
      <!-- 13 -->
      <defs>
       <path d="M 12.40625 8.296875 
L 28.515625 8.296875 
L 28.515625 63.921875 
L 10.984375 60.40625 
L 10.984375 69.390625 
L 28.421875 72.90625 
L 38.28125 72.90625 
L 38.28125 8.296875 
L 54.390625 8.296875 
L 54.390625 0 
L 12.40625 0 
z
" id="DejaVuSans-49"/>
       <path d="M 40.578125 39.3125 
Q 47.65625 37.796875 51.625 33 
Q 55.609375 28.21875 55.609375 21.1875 
Q 55.609375 10.40625 48.1875 4.484375 
Q 40.765625 -1.421875 27.09375 -1.421875 
Q 22.515625 -1.421875 17.65625 -0.515625 
Q 12.796875 0.390625 7.625 2.203125 
L 7.625 11.71875 
Q 11.71875 9.328125 16.59375 8.109375 
Q 21.484375 6.890625 26.8125 6.890625 
Q 36.078125 6.890625 40.9375 10.546875 
Q 45.796875 14.203125 45.796875 21.1875 
Q 45.796875 27.640625 41.28125 31.265625 
Q 36.765625 34.90625 28.71875 34.90625 
L 20.21875 34.90625 
L 20.21875 43.015625 
L 29.109375 43.015625 
Q 36.375 43.015625 40.234375 45.921875 
Q 44.09375 48.828125 44.09375 54.296875 
Q 44.09375 59.90625 40.109375 62.90625 
Q 36.140625 65.921875 28.71875 65.921875 
Q 24.65625 65.921875 20.015625 65.03125 
Q 15.375 64.15625 9.8125 62.3125 
L 9.8125 71.09375 
Q 15.4375 72.65625 20.34375 73.4375 
Q 25.25 74.21875 29.59375 74.21875 
Q 40.828125 74.21875 47.359375 69.109375 
Q 53.90625 64.015625 53.90625 55.328125 
Q 53.90625 49.265625 50.4375 45.09375 
Q 46.96875 40.921875 40.578125 39.3125 
z
" id="DejaVuSans-51"/>
      </defs>
      <g transform="translate(52.330821 266.598437)scale(0.1 -0.1)">
       <use xlink:href="#DejaVuSans-49"/>
       <use x="63.623047" xlink:href="#DejaVuSans-51"/>
      </g>
     </g>
    </g>
    <g id="xtick_2">
     <g id="line2d_3">
      <path clip-path="url(#pcb26660215)" d="M 110.788347 252 
L 110.788347 34.56 
" style="fill:none;stroke:#b0b0b0;stroke-linecap:square;stroke-width:0.8;"/>
     </g>
     <g id="line2d_4">
      <g>
       <use style="stroke:#000000;stroke-width:0.8;" x="110.788347" xlink:href="#m35ac57db90" y="252"/>
      </g>
     </g>
     <g id="text_2">
      <!-- 14 -->
      <defs>
       <path d="M 37.796875 64.3125 
L 12.890625 25.390625 
L 37.796875 25.390625 
z
M 35.203125 72.90625 
L 47.609375 72.90625 
L 47.609375 25.390625 
L 58.015625 25.390625 
L 58.015625 17.1875 
L 47.609375 17.1875 
L 47.609375 0 
L 37.796875 0 
L 37.796875 17.1875 
L 4.890625 17.1875 
L 4.890625 26.703125 
z
" id="DejaVuSans-52"/>
      </defs>
      <g transform="translate(104.425847 266.598437)scale(0.1 -0.1)">
       <use xlink:href="#DejaVuSans-49"/>
       <use x="63.623047" xlink:href="#DejaVuSans-52"/>
      </g>
     </g>
    </g>
    <g id="xtick_3">
     <g id="line2d_5">
      <path clip-path="url(#pcb26660215)" d="M 162.883374 252 
L 162.883374 34.56 
" style="fill:none;stroke:#b0b0b0;stroke-linecap:square;stroke-width:0.8;"/>
     </g>
     <g id="line2d_6">
      <g>
       <use style="stroke:#000000;stroke-width:0.8;" x="162.883374" xlink:href="#m35ac57db90" y="252"/>
      </g>
     </g>
     <g id="text_3">
      <!-- 15 -->
      <defs>
       <path d="M 10.796875 72.90625 
L 49.515625 72.90625 
L 49.515625 64.59375 
L 19.828125 64.59375 
L 19.828125 46.734375 
Q 21.96875 47.46875 24.109375 47.828125 
Q 26.265625 48.1875 28.421875 48.1875 
Q 40.625 48.1875 47.75 41.5 
Q 54.890625 34.8125 54.890625 23.390625 
Q 54.890625 11.625 47.5625 5.09375 
Q 40.234375 -1.421875 26.90625 -1.421875 
Q 22.3125 -1.421875 17.546875 -0.640625 
Q 12.796875 0.140625 7.71875 1.703125 
L 7.71875 11.625 
Q 12.109375 9.234375 16.796875 8.0625 
Q 21.484375 6.890625 26.703125 6.890625 
Q 35.15625 6.890625 40.078125 11.328125 
Q 45.015625 15.765625 45.015625 23.390625 
Q 45.015625 31 40.078125 35.4375 
Q 35.15625 39.890625 26.703125 39.890625 
Q 22.75 39.890625 18.8125 39.015625 
Q 14.890625 38.140625 10.796875 36.28125 
z
" id="DejaVuSans-53"/>
      </defs>
      <g transform="translate(156.520874 266.598437)scale(0.1 -0.1)">
       <use xlink:href="#DejaVuSans-49"/>
       <use x="63.623047" xlink:href="#DejaVuSans-53"/>
      </g>
     </g>
    </g>
    <g id="xtick_4">
     <g id="line2d_7">
      <path clip-path="url(#pcb26660215)" d="M 214.9784 252 
L 214.9784 34.56 
" style="fill:none;stroke:#b0b0b0;stroke-linecap:square;stroke-width:0.8;"/>
     </g>
     <g id="line2d_8">
      <g>
       <use style="stroke:#000000;stroke-width:0.8;" x="214.9784" xlink:href="#m35ac57db90" y="252"/>
      </g>
     </g>
     <g id="text_4">
      <!-- 16 -->
      <defs>
       <path d="M 33.015625 40.375 
Q 26.375 40.375 22.484375 35.828125 
Q 18.609375 31.296875 18.609375 23.390625 
Q 18.609375 15.53125 22.484375 10.953125 
Q 26.375 6.390625 33.015625 6.390625 
Q 39.65625 6.390625 43.53125 10.953125 
Q 47.40625 15.53125 47.40625 23.390625 
Q 47.40625 31.296875 43.53125 35.828125 
Q 39.65625 40.375 33.015625 40.375 
z
M 52.59375 71.296875 
L 52.59375 62.3125 
Q 48.875 64.0625 45.09375 64.984375 
Q 41.3125 65.921875 37.59375 65.921875 
Q 27.828125 65.921875 22.671875 59.328125 
Q 17.53125 52.734375 16.796875 39.40625 
Q 19.671875 43.65625 24.015625 45.921875 
Q 28.375 48.1875 33.59375 48.1875 
Q 44.578125 48.1875 50.953125 41.515625 
Q 57.328125 34.859375 57.328125 23.390625 
Q 57.328125 12.15625 50.6875 5.359375 
Q 44.046875 -1.421875 33.015625 -1.421875 
Q 20.359375 -1.421875 13.671875 8.265625 
Q 6.984375 17.96875 6.984375 36.375 
Q 6.984375 53.65625 15.1875 63.9375 
Q 23.390625 74.21875 37.203125 74.21875 
Q 40.921875 74.21875 44.703125 73.484375 
Q 48.484375 72.75 52.59375 71.296875 
z
" id="DejaVuSans-54"/>
      </defs>
      <g transform="translate(208.6159 266.598437)scale(0.1 -0.1)">
       <use xlink:href="#DejaVuSans-49"/>
       <use x="63.623047" xlink:href="#DejaVuSans-54"/>
      </g>
     </g>
    </g>
    <g id="xtick_5">
     <g id="line2d_9">
      <path clip-path="url(#pcb26660215)" d="M 267.073427 252 
L 267.073427 34.56 
" style="fill:none;stroke:#b0b0b0;stroke-linecap:square;stroke-width:0.8;"/>
     </g>
     <g id="line2d_10">
      <g>
       <use style="stroke:#000000;stroke-width:0.8;" x="267.073427" xlink:href="#m35ac57db90" y="252"/>
      </g>
     </g>
     <g id="text_5">
      <!-- 17 -->
      <defs>
       <path d="M 8.203125 72.90625 
L 55.078125 72.90625 
L 55.078125 68.703125 
L 28.609375 0 
L 18.3125 0 
L 43.21875 64.59375 
L 8.203125 64.59375 
z
" id="DejaVuSans-55"/>
      </defs>
      <g transform="translate(260.710927 266.598437)scale(0.1 -0.1)">
       <use xlink:href="#DejaVuSans-49"/>
       <use x="63.623047" xlink:href="#DejaVuSans-55"/>
      </g>
     </g>
    </g>
    <g id="xtick_6">
     <g id="line2d_11">
      <path clip-path="url(#pcb26660215)" d="M 319.168453 252 
L 319.168453 34.56 
" style="fill:none;stroke:#b0b0b0;stroke-linecap:square;stroke-width:0.8;"/>
     </g>
     <g id="line2d_12">
      <g>
       <use style="stroke:#000000;stroke-width:0.8;" x="319.168453" xlink:href="#m35ac57db90" y="252"/>
      </g>
     </g>
     <g id="text_6">
      <!-- 18 -->
      <defs>
       <path d="M 31.78125 34.625 
Q 24.75 34.625 20.71875 30.859375 
Q 16.703125 27.09375 16.703125 20.515625 
Q 16.703125 13.921875 20.71875 10.15625 
Q 24.75 6.390625 31.78125 6.390625 
Q 38.8125 6.390625 42.859375 10.171875 
Q 46.921875 13.96875 46.921875 20.515625 
Q 46.921875 27.09375 42.890625 30.859375 
Q 38.875 34.625 31.78125 34.625 
z
M 21.921875 38.8125 
Q 15.578125 40.375 12.03125 44.71875 
Q 8.5 49.078125 8.5 55.328125 
Q 8.5 64.0625 14.71875 69.140625 
Q 20.953125 74.21875 31.78125 74.21875 
Q 42.671875 74.21875 48.875 69.140625 
Q 55.078125 64.0625 55.078125 55.328125 
Q 55.078125 49.078125 51.53125 44.71875 
Q 48 40.375 41.703125 38.8125 
Q 48.828125 37.15625 52.796875 32.3125 
Q 56.78125 27.484375 56.78125 20.515625 
Q 56.78125 9.90625 50.3125 4.234375 
Q 43.84375 -1.421875 31.78125 -1.421875 
Q 19.734375 -1.421875 13.25 4.234375 
Q 6.78125 9.90625 6.78125 20.515625 
Q 6.78125 27.484375 10.78125 32.3125 
Q 14.796875 37.15625 21.921875 38.8125 
z
M 18.3125 54.390625 
Q 18.3125 48.734375 21.84375 45.5625 
Q 25.390625 42.390625 31.78125 42.390625 
Q 38.140625 42.390625 41.71875 45.5625 
Q 45.3125 48.734375 45.3125 54.390625 
Q 45.3125 60.0625 41.71875 63.234375 
Q 38.140625 66.40625 31.78125 66.40625 
Q 25.390625 66.40625 21.84375 63.234375 
Q 18.3125 60.0625 18.3125 54.390625 
z
" id="DejaVuSans-56"/>
      </defs>
      <g transform="translate(312.805953 266.598437)scale(0.1 -0.1)">
       <use xlink:href="#DejaVuSans-49"/>
       <use x="63.623047" xlink:href="#DejaVuSans-56"/>
      </g>
     </g>
    </g>
    <g id="xtick_7">
     <g id="line2d_13">
      <path clip-path="url(#pcb26660215)" d="M 371.263479 252 
L 371.263479 34.56 
" style="fill:none;stroke:#b0b0b0;stroke-linecap:square;stroke-width:0.8;"/>
     </g>
     <g id="line2d_14">
      <g>
       <use style="stroke:#000000;stroke-width:0.8;" x="371.263479" xlink:href="#m35ac57db90" y="252"/>
      </g>
     </g>
     <g id="text_7">
      <!-- 19 -->
      <defs>
       <path d="M 10.984375 1.515625 
L 10.984375 10.5 
Q 14.703125 8.734375 18.5 7.8125 
Q 22.3125 6.890625 25.984375 6.890625 
Q 35.75 6.890625 40.890625 13.453125 
Q 46.046875 20.015625 46.78125 33.40625 
Q 43.953125 29.203125 39.59375 26.953125 
Q 35.25 24.703125 29.984375 24.703125 
Q 19.046875 24.703125 12.671875 31.3125 
Q 6.296875 37.9375 6.296875 49.421875 
Q 6.296875 60.640625 12.9375 67.421875 
Q 19.578125 74.21875 30.609375 74.21875 
Q 43.265625 74.21875 49.921875 64.515625 
Q 56.59375 54.828125 56.59375 36.375 
Q 56.59375 19.140625 48.40625 8.859375 
Q 40.234375 -1.421875 26.421875 -1.421875 
Q 22.703125 -1.421875 18.890625 -0.6875 
Q 15.09375 0.046875 10.984375 1.515625 
z
M 30.609375 32.421875 
Q 37.25 32.421875 41.125 36.953125 
Q 45.015625 41.5 45.015625 49.421875 
Q 45.015625 57.28125 41.125 61.84375 
Q 37.25 66.40625 30.609375 66.40625 
Q 23.96875 66.40625 20.09375 61.84375 
Q 16.21875 57.28125 16.21875 49.421875 
Q 16.21875 41.5 20.09375 36.953125 
Q 23.96875 32.421875 30.609375 32.421875 
z
" id="DejaVuSans-57"/>
      </defs>
      <g transform="translate(364.900979 266.598437)scale(0.1 -0.1)">
       <use xlink:href="#DejaVuSans-49"/>
       <use x="63.623047" xlink:href="#DejaVuSans-57"/>
      </g>
     </g>
    </g>
    <g id="text_8">
     <!-- Reclamos transformación logarítmica -->
     <defs>
      <path d="M 44.390625 34.1875 
Q 47.5625 33.109375 50.5625 29.59375 
Q 53.5625 26.078125 56.59375 19.921875 
L 66.609375 0 
L 56 0 
L 46.6875 18.703125 
Q 43.0625 26.03125 39.671875 28.421875 
Q 36.28125 30.8125 30.421875 30.8125 
L 19.671875 30.8125 
L 19.671875 0 
L 9.8125 0 
L 9.8125 72.90625 
L 32.078125 72.90625 
Q 44.578125 72.90625 50.734375 67.671875 
Q 56.890625 62.453125 56.890625 51.90625 
Q 56.890625 45.015625 53.6875 40.46875 
Q 50.484375 35.9375 44.390625 34.1875 
z
M 19.671875 64.796875 
L 19.671875 38.921875 
L 32.078125 38.921875 
Q 39.203125 38.921875 42.84375 42.21875 
Q 46.484375 45.515625 46.484375 51.90625 
Q 46.484375 58.296875 42.84375 61.546875 
Q 39.203125 64.796875 32.078125 64.796875 
z
" id="DejaVuSans-82"/>
      <path d="M 56.203125 29.59375 
L 56.203125 25.203125 
L 14.890625 25.203125 
Q 15.484375 15.921875 20.484375 11.0625 
Q 25.484375 6.203125 34.421875 6.203125 
Q 39.59375 6.203125 44.453125 7.46875 
Q 49.3125 8.734375 54.109375 11.28125 
L 54.109375 2.78125 
Q 49.265625 0.734375 44.1875 -0.34375 
Q 39.109375 -1.421875 33.890625 -1.421875 
Q 20.796875 -1.421875 13.15625 6.1875 
Q 5.515625 13.8125 5.515625 26.8125 
Q 5.515625 40.234375 12.765625 48.109375 
Q 20.015625 56 32.328125 56 
Q 43.359375 56 49.78125 48.890625 
Q 56.203125 41.796875 56.203125 29.59375 
z
M 47.21875 32.234375 
Q 47.125 39.59375 43.09375 43.984375 
Q 39.0625 48.390625 32.421875 48.390625 
Q 24.90625 48.390625 20.390625 44.140625 
Q 15.875 39.890625 15.1875 32.171875 
z
" id="DejaVuSans-101"/>
      <path d="M 48.78125 52.59375 
L 48.78125 44.1875 
Q 44.96875 46.296875 41.140625 47.34375 
Q 37.3125 48.390625 33.40625 48.390625 
Q 24.65625 48.390625 19.8125 42.84375 
Q 14.984375 37.3125 14.984375 27.296875 
Q 14.984375 17.28125 19.8125 11.734375 
Q 24.65625 6.203125 33.40625 6.203125 
Q 37.3125 6.203125 41.140625 7.25 
Q 44.96875 8.296875 48.78125 10.40625 
L 48.78125 2.09375 
Q 45.015625 0.34375 40.984375 -0.53125 
Q 36.96875 -1.421875 32.421875 -1.421875 
Q 20.0625 -1.421875 12.78125 6.34375 
Q 5.515625 14.109375 5.515625 27.296875 
Q 5.515625 40.671875 12.859375 48.328125 
Q 20.21875 56 33.015625 56 
Q 37.15625 56 41.109375 55.140625 
Q 45.0625 54.296875 48.78125 52.59375 
z
" id="DejaVuSans-99"/>
      <path d="M 9.421875 75.984375 
L 18.40625 75.984375 
L 18.40625 0 
L 9.421875 0 
z
" id="DejaVuSans-108"/>
      <path d="M 34.28125 27.484375 
Q 23.390625 27.484375 19.1875 25 
Q 14.984375 22.515625 14.984375 16.5 
Q 14.984375 11.71875 18.140625 8.90625 
Q 21.296875 6.109375 26.703125 6.109375 
Q 34.1875 6.109375 38.703125 11.40625 
Q 43.21875 16.703125 43.21875 25.484375 
L 43.21875 27.484375 
z
M 52.203125 31.203125 
L 52.203125 0 
L 43.21875 0 
L 43.21875 8.296875 
Q 40.140625 3.328125 35.546875 0.953125 
Q 30.953125 -1.421875 24.3125 -1.421875 
Q 15.921875 -1.421875 10.953125 3.296875 
Q 6 8.015625 6 15.921875 
Q 6 25.140625 12.171875 29.828125 
Q 18.359375 34.515625 30.609375 34.515625 
L 43.21875 34.515625 
L 43.21875 35.40625 
Q 43.21875 41.609375 39.140625 45 
Q 35.0625 48.390625 27.6875 48.390625 
Q 23 48.390625 18.546875 47.265625 
Q 14.109375 46.140625 10.015625 43.890625 
L 10.015625 52.203125 
Q 14.9375 54.109375 19.578125 55.046875 
Q 24.21875 56 28.609375 56 
Q 40.484375 56 46.34375 49.84375 
Q 52.203125 43.703125 52.203125 31.203125 
z
" id="DejaVuSans-97"/>
      <path d="M 52 44.1875 
Q 55.375 50.25 60.0625 53.125 
Q 64.75 56 71.09375 56 
Q 79.640625 56 84.28125 50.015625 
Q 88.921875 44.046875 88.921875 33.015625 
L 88.921875 0 
L 79.890625 0 
L 79.890625 32.71875 
Q 79.890625 40.578125 77.09375 44.375 
Q 74.3125 48.1875 68.609375 48.1875 
Q 61.625 48.1875 57.5625 43.546875 
Q 53.515625 38.921875 53.515625 30.90625 
L 53.515625 0 
L 44.484375 0 
L 44.484375 32.71875 
Q 44.484375 40.625 41.703125 44.40625 
Q 38.921875 48.1875 33.109375 48.1875 
Q 26.21875 48.1875 22.15625 43.53125 
Q 18.109375 38.875 18.109375 30.90625 
L 18.109375 0 
L 9.078125 0 
L 9.078125 54.6875 
L 18.109375 54.6875 
L 18.109375 46.1875 
Q 21.1875 51.21875 25.484375 53.609375 
Q 29.78125 56 35.6875 56 
Q 41.65625 56 45.828125 52.96875 
Q 50 49.953125 52 44.1875 
z
" id="DejaVuSans-109"/>
      <path d="M 30.609375 48.390625 
Q 23.390625 48.390625 19.1875 42.75 
Q 14.984375 37.109375 14.984375 27.296875 
Q 14.984375 17.484375 19.15625 11.84375 
Q 23.34375 6.203125 30.609375 6.203125 
Q 37.796875 6.203125 41.984375 11.859375 
Q 46.1875 17.53125 46.1875 27.296875 
Q 46.1875 37.015625 41.984375 42.703125 
Q 37.796875 48.390625 30.609375 48.390625 
z
M 30.609375 56 
Q 42.328125 56 49.015625 48.375 
Q 55.71875 40.765625 55.71875 27.296875 
Q 55.71875 13.875 49.015625 6.21875 
Q 42.328125 -1.421875 30.609375 -1.421875 
Q 18.84375 -1.421875 12.171875 6.21875 
Q 5.515625 13.875 5.515625 27.296875 
Q 5.515625 40.765625 12.171875 48.375 
Q 18.84375 56 30.609375 56 
z
" id="DejaVuSans-111"/>
      <path d="M 44.28125 53.078125 
L 44.28125 44.578125 
Q 40.484375 46.53125 36.375 47.5 
Q 32.28125 48.484375 27.875 48.484375 
Q 21.1875 48.484375 17.84375 46.4375 
Q 14.5 44.390625 14.5 40.28125 
Q 14.5 37.15625 16.890625 35.375 
Q 19.28125 33.59375 26.515625 31.984375 
L 29.59375 31.296875 
Q 39.15625 29.25 43.1875 25.515625 
Q 47.21875 21.78125 47.21875 15.09375 
Q 47.21875 7.46875 41.1875 3.015625 
Q 35.15625 -1.421875 24.609375 -1.421875 
Q 20.21875 -1.421875 15.453125 -0.5625 
Q 10.6875 0.296875 5.421875 2 
L 5.421875 11.28125 
Q 10.40625 8.6875 15.234375 7.390625 
Q 20.0625 6.109375 24.8125 6.109375 
Q 31.15625 6.109375 34.5625 8.28125 
Q 37.984375 10.453125 37.984375 14.40625 
Q 37.984375 18.0625 35.515625 20.015625 
Q 33.0625 21.96875 24.703125 23.78125 
L 21.578125 24.515625 
Q 13.234375 26.265625 9.515625 29.90625 
Q 5.8125 33.546875 5.8125 39.890625 
Q 5.8125 47.609375 11.28125 51.796875 
Q 16.75 56 26.8125 56 
Q 31.78125 56 36.171875 55.265625 
Q 40.578125 54.546875 44.28125 53.078125 
z
" id="DejaVuSans-115"/>
      <path id="DejaVuSans-32"/>
      <path d="M 18.3125 70.21875 
L 18.3125 54.6875 
L 36.8125 54.6875 
L 36.8125 47.703125 
L 18.3125 47.703125 
L 18.3125 18.015625 
Q 18.3125 11.328125 20.140625 9.421875 
Q 21.96875 7.515625 27.59375 7.515625 
L 36.8125 7.515625 
L 36.8125 0 
L 27.59375 0 
Q 17.1875 0 13.234375 3.875 
Q 9.28125 7.765625 9.28125 18.015625 
L 9.28125 47.703125 
L 2.6875 47.703125 
L 2.6875 54.6875 
L 9.28125 54.6875 
L 9.28125 70.21875 
z
" id="DejaVuSans-116"/>
      <path d="M 41.109375 46.296875 
Q 39.59375 47.171875 37.8125 47.578125 
Q 36.03125 48 33.890625 48 
Q 26.265625 48 22.1875 43.046875 
Q 18.109375 38.09375 18.109375 28.8125 
L 18.109375 0 
L 9.078125 0 
L 9.078125 54.6875 
L 18.109375 54.6875 
L 18.109375 46.1875 
Q 20.953125 51.171875 25.484375 53.578125 
Q 30.03125 56 36.53125 56 
Q 37.453125 56 38.578125 55.875 
Q 39.703125 55.765625 41.0625 55.515625 
z
" id="DejaVuSans-114"/>
      <path d="M 54.890625 33.015625 
L 54.890625 0 
L 45.90625 0 
L 45.90625 32.71875 
Q 45.90625 40.484375 42.875 44.328125 
Q 39.84375 48.1875 33.796875 48.1875 
Q 26.515625 48.1875 22.3125 43.546875 
Q 18.109375 38.921875 18.109375 30.90625 
L 18.109375 0 
L 9.078125 0 
L 9.078125 54.6875 
L 18.109375 54.6875 
L 18.109375 46.1875 
Q 21.34375 51.125 25.703125 53.5625 
Q 30.078125 56 35.796875 56 
Q 45.21875 56 50.046875 50.171875 
Q 54.890625 44.34375 54.890625 33.015625 
z
" id="DejaVuSans-110"/>
      <path d="M 37.109375 75.984375 
L 37.109375 68.5 
L 28.515625 68.5 
Q 23.6875 68.5 21.796875 66.546875 
Q 19.921875 64.59375 19.921875 59.515625 
L 19.921875 54.6875 
L 34.71875 54.6875 
L 34.71875 47.703125 
L 19.921875 47.703125 
L 19.921875 0 
L 10.890625 0 
L 10.890625 47.703125 
L 2.296875 47.703125 
L 2.296875 54.6875 
L 10.890625 54.6875 
L 10.890625 58.5 
Q 10.890625 67.625 15.140625 71.796875 
Q 19.390625 75.984375 28.609375 75.984375 
z
" id="DejaVuSans-102"/>
      <path d="M 9.421875 54.6875 
L 18.40625 54.6875 
L 18.40625 0 
L 9.421875 0 
z
M 9.421875 75.984375 
L 18.40625 75.984375 
L 18.40625 64.59375 
L 9.421875 64.59375 
z
" id="DejaVuSans-105"/>
      <path d="M 30.609375 48.390625 
Q 23.390625 48.390625 19.1875 42.75 
Q 14.984375 37.109375 14.984375 27.296875 
Q 14.984375 17.484375 19.15625 11.84375 
Q 23.34375 6.203125 30.609375 6.203125 
Q 37.796875 6.203125 41.984375 11.859375 
Q 46.1875 17.53125 46.1875 27.296875 
Q 46.1875 37.015625 41.984375 42.703125 
Q 37.796875 48.390625 30.609375 48.390625 
z
M 30.609375 56 
Q 42.328125 56 49.015625 48.375 
Q 55.71875 40.765625 55.71875 27.296875 
Q 55.71875 13.875 49.015625 6.21875 
Q 42.328125 -1.421875 30.609375 -1.421875 
Q 18.84375 -1.421875 12.171875 6.21875 
Q 5.515625 13.875 5.515625 27.296875 
Q 5.515625 40.765625 12.171875 48.375 
Q 18.84375 56 30.609375 56 
z
M 37.40625 79.984375 
L 47.125 79.984375 
L 31.203125 61.625 
L 23.734375 61.625 
z
" id="DejaVuSans-243"/>
      <path d="M 45.40625 27.984375 
Q 45.40625 37.75 41.375 43.109375 
Q 37.359375 48.484375 30.078125 48.484375 
Q 22.859375 48.484375 18.828125 43.109375 
Q 14.796875 37.75 14.796875 27.984375 
Q 14.796875 18.265625 18.828125 12.890625 
Q 22.859375 7.515625 30.078125 7.515625 
Q 37.359375 7.515625 41.375 12.890625 
Q 45.40625 18.265625 45.40625 27.984375 
z
M 54.390625 6.78125 
Q 54.390625 -7.171875 48.1875 -13.984375 
Q 42 -20.796875 29.203125 -20.796875 
Q 24.46875 -20.796875 20.265625 -20.09375 
Q 16.0625 -19.390625 12.109375 -17.921875 
L 12.109375 -9.1875 
Q 16.0625 -11.328125 19.921875 -12.34375 
Q 23.78125 -13.375 27.78125 -13.375 
Q 36.625 -13.375 41.015625 -8.765625 
Q 45.40625 -4.15625 45.40625 5.171875 
L 45.40625 9.625 
Q 42.625 4.78125 38.28125 2.390625 
Q 33.9375 0 27.875 0 
Q 17.828125 0 11.671875 7.65625 
Q 5.515625 15.328125 5.515625 27.984375 
Q 5.515625 40.671875 11.671875 48.328125 
Q 17.828125 56 27.875 56 
Q 33.9375 56 38.28125 53.609375 
Q 42.625 51.21875 45.40625 46.390625 
L 45.40625 54.6875 
L 54.390625 54.6875 
z
" id="DejaVuSans-103"/>
      <path d="M 20.703125 79.984375 
L 30.421875 79.984375 
L 14.5 61.625 
L 7.03125 61.625 
z
M 9.421875 54.6875 
L 18.40625 54.6875 
L 18.40625 0 
L 9.421875 0 
z
M 13.921875 56 
z
" id="DejaVuSans-237"/>
     </defs>
     <g transform="translate(128.053906 280.676562)scale(0.1 -0.1)">
      <use xlink:href="#DejaVuSans-82"/>
      <use x="64.982422" xlink:href="#DejaVuSans-101"/>
      <use x="126.505859" xlink:href="#DejaVuSans-99"/>
      <use x="181.486328" xlink:href="#DejaVuSans-108"/>
      <use x="209.269531" xlink:href="#DejaVuSans-97"/>
      <use x="270.548828" xlink:href="#DejaVuSans-109"/>
      <use x="367.960938" xlink:href="#DejaVuSans-111"/>
      <use x="429.142578" xlink:href="#DejaVuSans-115"/>
      <use x="481.242188" xlink:href="#DejaVuSans-32"/>
      <use x="513.029297" xlink:href="#DejaVuSans-116"/>
      <use x="552.238281" xlink:href="#DejaVuSans-114"/>
      <use x="593.351562" xlink:href="#DejaVuSans-97"/>
      <use x="654.630859" xlink:href="#DejaVuSans-110"/>
      <use x="718.009766" xlink:href="#DejaVuSans-115"/>
      <use x="770.109375" xlink:href="#DejaVuSans-102"/>
      <use x="805.314453" xlink:href="#DejaVuSans-111"/>
      <use x="866.496094" xlink:href="#DejaVuSans-114"/>
      <use x="905.859375" xlink:href="#DejaVuSans-109"/>
      <use x="1003.271484" xlink:href="#DejaVuSans-97"/>
      <use x="1064.550781" xlink:href="#DejaVuSans-99"/>
      <use x="1119.53125" xlink:href="#DejaVuSans-105"/>
      <use x="1147.314453" xlink:href="#DejaVuSans-243"/>
      <use x="1208.496094" xlink:href="#DejaVuSans-110"/>
      <use x="1271.875" xlink:href="#DejaVuSans-32"/>
      <use x="1303.662109" xlink:href="#DejaVuSans-108"/>
      <use x="1331.445312" xlink:href="#DejaVuSans-111"/>
      <use x="1392.626953" xlink:href="#DejaVuSans-103"/>
      <use x="1456.103516" xlink:href="#DejaVuSans-97"/>
      <use x="1517.382812" xlink:href="#DejaVuSans-114"/>
      <use x="1558.496094" xlink:href="#DejaVuSans-237"/>
      <use x="1586.279297" xlink:href="#DejaVuSans-116"/>
      <use x="1625.488281" xlink:href="#DejaVuSans-109"/>
      <use x="1722.900391" xlink:href="#DejaVuSans-105"/>
      <use x="1750.683594" xlink:href="#DejaVuSans-99"/>
      <use x="1805.664062" xlink:href="#DejaVuSans-97"/>
     </g>
    </g>
   </g>
   <g id="matplotlib.axis_2">
    <g id="ytick_1">
     <g id="line2d_15">
      <path clip-path="url(#pcb26660215)" d="M 54 252 
L 388.8 252 
" style="fill:none;stroke:#b0b0b0;stroke-linecap:square;stroke-width:0.8;"/>
     </g>
     <g id="line2d_16">
      <defs>
       <path d="M 0 0 
L -3.5 0 
" id="m51a9e4681e" style="stroke:#000000;stroke-width:0.8;"/>
      </defs>
      <g>
       <use style="stroke:#000000;stroke-width:0.8;" x="54" xlink:href="#m51a9e4681e" y="252"/>
      </g>
     </g>
     <g id="text_9">
      <!-- 0.0 -->
      <defs>
       <path d="M 31.78125 66.40625 
Q 24.171875 66.40625 20.328125 58.90625 
Q 16.5 51.421875 16.5 36.375 
Q 16.5 21.390625 20.328125 13.890625 
Q 24.171875 6.390625 31.78125 6.390625 
Q 39.453125 6.390625 43.28125 13.890625 
Q 47.125 21.390625 47.125 36.375 
Q 47.125 51.421875 43.28125 58.90625 
Q 39.453125 66.40625 31.78125 66.40625 
z
M 31.78125 74.21875 
Q 44.046875 74.21875 50.515625 64.515625 
Q 56.984375 54.828125 56.984375 36.375 
Q 56.984375 17.96875 50.515625 8.265625 
Q 44.046875 -1.421875 31.78125 -1.421875 
Q 19.53125 -1.421875 13.0625 8.265625 
Q 6.59375 17.96875 6.59375 36.375 
Q 6.59375 54.828125 13.0625 64.515625 
Q 19.53125 74.21875 31.78125 74.21875 
z
" id="DejaVuSans-48"/>
       <path d="M 10.6875 12.40625 
L 21 12.40625 
L 21 0 
L 10.6875 0 
z
" id="DejaVuSans-46"/>
      </defs>
      <g transform="translate(31.096875 255.799219)scale(0.1 -0.1)">
       <use xlink:href="#DejaVuSans-48"/>
       <use x="63.623047" xlink:href="#DejaVuSans-46"/>
       <use x="95.410156" xlink:href="#DejaVuSans-48"/>
      </g>
     </g>
    </g>
    <g id="ytick_2">
     <g id="line2d_17">
      <path clip-path="url(#pcb26660215)" d="M 54 208.02346 
L 388.8 208.02346 
" style="fill:none;stroke:#b0b0b0;stroke-linecap:square;stroke-width:0.8;"/>
     </g>
     <g id="line2d_18">
      <g>
       <use style="stroke:#000000;stroke-width:0.8;" x="54" xlink:href="#m51a9e4681e" y="208.02346"/>
      </g>
     </g>
     <g id="text_10">
      <!-- 0.5 -->
      <g transform="translate(31.096875 211.822679)scale(0.1 -0.1)">
       <use xlink:href="#DejaVuSans-48"/>
       <use x="63.623047" xlink:href="#DejaVuSans-46"/>
       <use x="95.410156" xlink:href="#DejaVuSans-53"/>
      </g>
     </g>
    </g>
    <g id="ytick_3">
     <g id="line2d_19">
      <path clip-path="url(#pcb26660215)" d="M 54 164.04692 
L 388.8 164.04692 
" style="fill:none;stroke:#b0b0b0;stroke-linecap:square;stroke-width:0.8;"/>
     </g>
     <g id="line2d_20">
      <g>
       <use style="stroke:#000000;stroke-width:0.8;" x="54" xlink:href="#m51a9e4681e" y="164.04692"/>
      </g>
     </g>
     <g id="text_11">
      <!-- 1.0 -->
      <g transform="translate(31.096875 167.846138)scale(0.1 -0.1)">
       <use xlink:href="#DejaVuSans-49"/>
       <use x="63.623047" xlink:href="#DejaVuSans-46"/>
       <use x="95.410156" xlink:href="#DejaVuSans-48"/>
      </g>
     </g>
    </g>
    <g id="ytick_4">
     <g id="line2d_21">
      <path clip-path="url(#pcb26660215)" d="M 54 120.070379 
L 388.8 120.070379 
" style="fill:none;stroke:#b0b0b0;stroke-linecap:square;stroke-width:0.8;"/>
     </g>
     <g id="line2d_22">
      <g>
       <use style="stroke:#000000;stroke-width:0.8;" x="54" xlink:href="#m51a9e4681e" y="120.070379"/>
      </g>
     </g>
     <g id="text_12">
      <!-- 1.5 -->
      <g transform="translate(31.096875 123.869598)scale(0.1 -0.1)">
       <use xlink:href="#DejaVuSans-49"/>
       <use x="63.623047" xlink:href="#DejaVuSans-46"/>
       <use x="95.410156" xlink:href="#DejaVuSans-53"/>
      </g>
     </g>
    </g>
    <g id="ytick_5">
     <g id="line2d_23">
      <path clip-path="url(#pcb26660215)" d="M 54 76.093839 
L 388.8 76.093839 
" style="fill:none;stroke:#b0b0b0;stroke-linecap:square;stroke-width:0.8;"/>
     </g>
     <g id="line2d_24">
      <g>
       <use style="stroke:#000000;stroke-width:0.8;" x="54" xlink:href="#m51a9e4681e" y="76.093839"/>
      </g>
     </g>
     <g id="text_13">
      <!-- 2.0 -->
      <defs>
       <path d="M 19.1875 8.296875 
L 53.609375 8.296875 
L 53.609375 0 
L 7.328125 0 
L 7.328125 8.296875 
Q 12.9375 14.109375 22.625 23.890625 
Q 32.328125 33.6875 34.8125 36.53125 
Q 39.546875 41.84375 41.421875 45.53125 
Q 43.3125 49.21875 43.3125 52.78125 
Q 43.3125 58.59375 39.234375 62.25 
Q 35.15625 65.921875 28.609375 65.921875 
Q 23.96875 65.921875 18.8125 64.3125 
Q 13.671875 62.703125 7.8125 59.421875 
L 7.8125 69.390625 
Q 13.765625 71.78125 18.9375 73 
Q 24.125 74.21875 28.421875 74.21875 
Q 39.75 74.21875 46.484375 68.546875 
Q 53.21875 62.890625 53.21875 53.421875 
Q 53.21875 48.921875 51.53125 44.890625 
Q 49.859375 40.875 45.40625 35.40625 
Q 44.1875 33.984375 37.640625 27.21875 
Q 31.109375 20.453125 19.1875 8.296875 
z
" id="DejaVuSans-50"/>
      </defs>
      <g transform="translate(31.096875 79.893058)scale(0.1 -0.1)">
       <use xlink:href="#DejaVuSans-50"/>
       <use x="63.623047" xlink:href="#DejaVuSans-46"/>
       <use x="95.410156" xlink:href="#DejaVuSans-48"/>
      </g>
     </g>
    </g>
    <g id="text_14">
     <!-- Densidad -->
     <defs>
      <path d="M 19.671875 64.796875 
L 19.671875 8.109375 
L 31.59375 8.109375 
Q 46.6875 8.109375 53.6875 14.9375 
Q 60.6875 21.78125 60.6875 36.53125 
Q 60.6875 51.171875 53.6875 57.984375 
Q 46.6875 64.796875 31.59375 64.796875 
z
M 9.8125 72.90625 
L 30.078125 72.90625 
Q 51.265625 72.90625 61.171875 64.09375 
Q 71.09375 55.28125 71.09375 36.53125 
Q 71.09375 17.671875 61.125 8.828125 
Q 51.171875 0 30.078125 0 
L 9.8125 0 
z
" id="DejaVuSans-68"/>
      <path d="M 45.40625 46.390625 
L 45.40625 75.984375 
L 54.390625 75.984375 
L 54.390625 0 
L 45.40625 0 
L 45.40625 8.203125 
Q 42.578125 3.328125 38.25 0.953125 
Q 33.9375 -1.421875 27.875 -1.421875 
Q 17.96875 -1.421875 11.734375 6.484375 
Q 5.515625 14.40625 5.515625 27.296875 
Q 5.515625 40.1875 11.734375 48.09375 
Q 17.96875 56 27.875 56 
Q 33.9375 56 38.25 53.625 
Q 42.578125 51.265625 45.40625 46.390625 
z
M 14.796875 27.296875 
Q 14.796875 17.390625 18.875 11.75 
Q 22.953125 6.109375 30.078125 6.109375 
Q 37.203125 6.109375 41.296875 11.75 
Q 45.40625 17.390625 45.40625 27.296875 
Q 45.40625 37.203125 41.296875 42.84375 
Q 37.203125 48.484375 30.078125 48.484375 
Q 22.953125 48.484375 18.875 42.84375 
Q 14.796875 37.203125 14.796875 27.296875 
z
" id="DejaVuSans-100"/>
     </defs>
     <g transform="translate(25.017187 166.781563)rotate(-90)scale(0.1 -0.1)">
      <use xlink:href="#DejaVuSans-68"/>
      <use x="77.001953" xlink:href="#DejaVuSans-101"/>
      <use x="138.525391" xlink:href="#DejaVuSans-110"/>
      <use x="201.904297" xlink:href="#DejaVuSans-115"/>
      <use x="254.003906" xlink:href="#DejaVuSans-105"/>
      <use x="281.787109" xlink:href="#DejaVuSans-100"/>
      <use x="345.263672" xlink:href="#DejaVuSans-97"/>
      <use x="406.542969" xlink:href="#DejaVuSans-100"/>
     </g>
    </g>
   </g>
   <g id="line2d_25">
    <path clip-path="url(#pcb26660215)" d="M 70.74 142.735696 
L 73.783636 151.082131 
L 76.827273 158.759642 
L 79.870909 165.824335 
L 82.914545 172.327398 
L 85.958182 178.315558 
L 89.001818 183.831482 
L 92.045455 188.914146 
L 95.089091 193.599166 
L 98.132727 197.919102 
L 101.176364 201.903729 
L 104.22 205.580288 
L 107.263636 208.973707 
L 110.307273 212.10681 
L 113.350909 215.000497 
L 116.394545 217.673919 
L 119.438182 220.144625 
L 122.481818 222.428704 
L 125.525455 224.540913 
L 128.569091 226.494788 
L 131.612727 228.302754 
L 134.656364 229.976217 
L 137.7 231.525651 
L 140.743636 232.96068 
L 143.787273 234.290146 
L 146.830909 235.522178 
L 149.874545 236.664251 
L 152.918182 237.723243 
L 155.961818 238.70548 
L 159.005455 239.616787 
L 162.049091 240.462526 
L 165.092727 241.247635 
L 168.136364 241.976666 
L 171.18 242.653812 
L 174.223636 243.282939 
L 177.267273 243.867613 
L 180.310909 244.411122 
L 183.354545 244.9165 
L 186.398182 245.386549 
L 189.441818 245.823854 
L 192.485455 246.230804 
L 195.529091 246.609605 
L 198.572727 246.962296 
L 201.616364 247.290761 
L 204.66 247.596743 
L 207.703636 247.881853 
L 210.747273 248.147582 
L 213.790909 248.395309 
L 216.834545 248.626313 
L 219.878182 248.841774 
L 222.921818 249.042788 
L 225.965455 249.230369 
L 229.009091 249.405458 
L 232.052727 249.568926 
L 235.096364 249.72158 
L 238.14 249.864169 
L 241.183636 249.99739 
L 244.227273 250.121885 
L 247.270909 250.238254 
L 250.314545 250.347052 
L 253.358182 250.448795 
L 256.401818 250.543963 
L 259.445455 250.632999 
L 262.489091 250.716319 
L 265.532727 250.794306 
L 268.576364 250.867318 
L 271.62 250.935687 
L 274.663636 250.999722 
L 277.707273 251.059712 
L 280.750909 251.115924 
L 283.794545 251.168607 
L 286.838182 251.217993 
L 289.881818 251.264298 
L 292.925455 251.307724 
L 295.969091 251.348458 
L 299.012727 251.386675 
L 302.056364 251.422538 
L 305.1 251.456198 
L 308.143636 251.487798 
L 311.187273 251.51747 
L 314.230909 251.545336 
L 317.274545 251.571512 
L 320.318182 251.596106 
L 323.361818 251.619216 
L 326.405455 251.640938 
L 329.449091 251.661359 
L 332.492727 251.68056 
L 335.536364 251.698617 
L 338.58 251.715602 
L 341.623636 251.731582 
L 344.667273 251.746619 
L 347.710909 251.760771 
L 350.754545 251.774093 
L 353.798182 251.786635 
L 356.841818 251.798447 
L 359.885455 251.809571 
L 362.929091 251.82005 
L 365.972727 251.829924 
L 369.016364 251.839229 
L 372.06 251.847999 
" style="fill:none;stroke:#ff7f0e;stroke-linecap:square;stroke-width:2;"/>
   </g>
   <g id="line2d_26">
    <path clip-path="url(#pcb26660215)" d="M 70.74 44.914286 
L 73.783636 115.989051 
L 76.827273 143.710136 
L 79.870909 160.715539 
L 82.914545 172.874522 
L 85.958182 182.26706 
L 89.001818 189.86443 
L 92.045455 196.198094 
L 95.089091 201.590925 
L 98.132727 206.254277 
L 101.176364 210.334478 
L 104.22 213.937358 
L 107.263636 217.142161 
L 110.307273 220.009939 
L 113.350909 222.588842 
L 116.394545 224.917597 
L 119.438182 227.027878 
L 122.481818 228.945962 
L 125.525455 230.693914 
L 128.569091 232.29046 
L 131.612727 233.751642 
L 134.656364 235.091312 
L 137.7 236.321519 
L 140.743636 237.452805 
L 143.787273 238.49445 
L 146.830909 239.45466 
L 149.874545 240.340728 
L 152.918182 241.159156 
L 155.961818 241.915765 
L 159.005455 242.615784 
L 162.049091 243.263922 
L 165.092727 243.864429 
L 168.136364 244.421157 
L 171.18 244.937597 
L 174.223636 245.416924 
L 177.267273 245.86203 
L 180.310909 246.275553 
L 183.354545 246.659903 
L 186.398182 247.017287 
L 189.441818 247.349725 
L 192.485455 247.659073 
L 195.529091 247.947033 
L 198.572727 248.21517 
L 201.616364 248.464928 
L 204.66 248.697632 
L 207.703636 248.914508 
L 210.747273 249.116685 
L 213.790909 249.305206 
L 216.834545 249.481035 
L 219.878182 249.645064 
L 222.921818 249.798117 
L 225.965455 249.940959 
L 229.009091 250.074297 
L 232.052727 250.198785 
L 235.096364 250.315034 
L 238.14 250.423606 
L 241.183636 250.525025 
L 244.227273 250.619778 
L 247.270909 250.708316 
L 250.314545 250.791058 
L 253.358182 250.868396 
L 256.401818 250.940692 
L 259.445455 251.008282 
L 262.489091 251.071483 
L 265.532727 251.130585 
L 268.576364 251.185861 
L 271.62 251.237564 
L 274.663636 251.285931 
L 277.707273 251.331182 
L 280.750909 251.373521 
L 283.794545 251.41314 
L 286.838182 251.450218 
L 289.881818 251.48492 
L 292.925455 251.517402 
L 295.969091 251.547807 
L 299.012727 251.576272 
L 302.056364 251.602923 
L 305.1 251.627876 
L 308.143636 251.651243 
L 311.187273 251.673124 
L 314.230909 251.693617 
L 317.274545 251.712811 
L 320.318182 251.730789 
L 323.361818 251.747629 
L 326.405455 251.763405 
L 329.449091 251.778185 
L 332.492727 251.792032 
L 335.536364 251.805006 
L 338.58 251.817162 
L 341.623636 251.828554 
L 344.667273 251.83923 
L 347.710909 251.849234 
L 350.754545 251.858611 
L 353.798182 251.867399 
L 356.841818 251.875637 
L 359.885455 251.883358 
L 362.929091 251.890596 
L 365.972727 251.897381 
L 369.016364 251.903742 
L 372.06 251.909706 
" style="fill:none;stroke:#2ca02c;stroke-linecap:square;stroke-width:2;"/>
   </g>
   <g id="line2d_27">
    <path clip-path="url(#pcb26660215)" d="M 70.74 221.959422 
L 73.783636 219.143299 
L 76.827273 215.920926 
L 79.870909 212.171093 
L 82.914545 207.691976 
L 85.958182 202.092814 
L 89.001818 194.383265 
L 92.045455 179.514912 
L 95.089091 184.211461 
L 98.132727 196.285508 
L 101.176364 203.397104 
L 104.22 208.710258 
L 107.263636 213.012474 
L 110.307273 216.638131 
L 113.350909 219.766676 
L 116.394545 222.508475 
L 119.438182 224.937754 
L 122.481818 227.107663 
L 125.525455 229.058057 
L 128.569091 230.819883 
L 131.612727 232.417834 
L 134.656364 233.872045 
L 137.7 235.199222 
L 140.743636 236.413425 
L 143.787273 237.526629 
L 146.830909 238.549139 
L 149.874545 239.489893 
L 152.918182 240.356703 
L 155.961818 241.156439 
L 159.005455 241.895177 
L 162.049091 242.578314 
L 165.092727 243.210666 
L 168.136364 243.796546 
L 171.18 244.33983 
L 174.223636 244.84401 
L 177.267273 245.312243 
L 180.310909 245.74739 
L 183.354545 246.152046 
L 186.398182 246.528574 
L 189.441818 246.879126 
L 192.485455 247.205669 
L 195.529091 247.510001 
L 198.572727 247.793766 
L 201.616364 248.058476 
L 204.66 248.305516 
L 207.703636 248.53616 
L 210.747273 248.751581 
L 213.790909 248.952859 
L 216.834545 249.140989 
L 219.878182 249.316892 
L 222.921818 249.481416 
L 225.965455 249.635346 
L 229.009091 249.779407 
L 232.052727 249.914273 
L 235.096364 250.040565 
L 238.14 250.158862 
L 241.183636 250.269698 
L 244.227273 250.37357 
L 247.270909 250.47094 
L 250.314545 250.562237 
L 253.358182 250.647859 
L 256.401818 250.728177 
L 259.445455 250.803536 
L 262.489091 250.874257 
L 265.532727 250.940639 
L 268.576364 251.00296 
L 271.62 251.061481 
L 274.663636 251.116444 
L 277.707273 251.168074 
L 280.750909 251.216582 
L 283.794545 251.262166 
L 286.838182 251.305007 
L 289.881818 251.345279 
L 292.925455 251.383141 
L 295.969091 251.418744 
L 299.012727 251.452227 
L 302.056364 251.483721 
L 305.1 251.513349 
L 308.143636 251.541225 
L 311.187273 251.567457 
L 314.230909 251.592145 
L 317.274545 251.615384 
L 320.318182 251.63726 
L 323.361818 251.657857 
L 326.405455 251.677252 
L 329.449091 251.695518 
L 332.492727 251.712722 
L 335.536364 251.728928 
L 338.58 251.744195 
L 341.623636 251.75858 
L 344.667273 251.772136 
L 347.710909 251.784911 
L 350.754545 251.796952 
L 353.798182 251.808302 
L 356.841818 251.819002 
L 359.885455 251.82909 
L 362.929091 251.838603 
L 365.972727 251.847573 
L 369.016364 251.856033 
L 372.06 251.864013 
" style="fill:none;stroke:#d62728;stroke-linecap:square;stroke-width:2;"/>
   </g>
   <g id="line2d_28">
    <path clip-path="url(#pcb26660215)" d="M 70.74 221.431714 
L 73.783636 217.229226 
L 76.827273 212.143102 
L 79.870909 205.865058 
L 82.914545 197.899666 
L 85.958182 187.36012 
L 89.001818 172.327999 
L 92.045455 146.175648 
L 95.089091 154.715434 
L 98.132727 176.656576 
L 101.176364 190.282121 
L 104.22 200.065578 
L 107.263636 207.55163 
L 110.307273 213.498046 
L 113.350909 218.341809 
L 116.394545 222.36034 
L 119.438182 225.74147 
L 122.481818 228.618401 
L 125.525455 231.088961 
L 128.569091 233.227003 
L 131.612727 235.089528 
L 134.656364 236.721342 
L 137.7 238.158212 
L 140.743636 239.429061 
L 143.787273 240.557546 
L 146.830909 241.56321 
L 149.874545 242.462333 
L 152.918182 243.268589 
L 155.961818 243.993535 
L 159.005455 244.647005 
L 162.049091 245.237412 
L 165.092727 245.771991 
L 168.136364 246.256993 
L 171.18 246.697841 
L 174.223636 247.09926 
L 177.267273 247.465381 
L 180.310909 247.799829 
L 183.354545 248.105793 
L 186.398182 248.386091 
L 189.441818 248.643214 
L 192.485455 248.879375 
L 195.529091 249.096542 
L 198.572727 249.296471 
L 201.616364 249.48073 
L 204.66 249.650725 
L 207.703636 249.807715 
L 210.747273 249.952835 
L 213.790909 250.087104 
L 216.834545 250.211443 
L 219.878182 250.326685 
L 222.921818 250.433582 
L 225.965455 250.532817 
L 229.009091 250.625007 
L 232.052727 250.710717 
L 235.096364 250.790458 
L 238.14 250.864696 
L 241.183636 250.933857 
L 244.227273 250.99833 
L 247.270909 251.058469 
L 250.314545 251.1146 
L 253.358182 251.16702 
L 256.401818 251.216003 
L 259.445455 251.261799 
L 262.489091 251.304639 
L 265.532727 251.344734 
L 268.576364 251.382279 
L 271.62 251.417453 
L 274.663636 251.450423 
L 277.707273 251.48134 
L 280.750909 251.510347 
L 283.794545 251.537572 
L 286.838182 251.563138 
L 289.881818 251.587154 
L 292.925455 251.609724 
L 295.969091 251.630944 
L 299.012727 251.650903 
L 302.056364 251.669683 
L 305.1 251.68736 
L 308.143636 251.704004 
L 311.187273 251.719683 
L 314.230909 251.734457 
L 317.274545 251.748384 
L 320.318182 251.761516 
L 323.361818 251.773903 
L 326.405455 251.785591 
L 329.449091 251.796623 
L 332.492727 251.807039 
L 335.536364 251.816877 
L 338.58 251.826171 
L 341.623636 251.834954 
L 344.667273 251.843256 
L 347.710909 251.851107 
L 350.754545 251.858533 
L 353.798182 251.865558 
L 356.841818 251.872207 
L 359.885455 251.878501 
L 362.929091 251.88446 
L 365.972727 251.890104 
L 369.016364 251.895451 
L 372.06 251.900517 
" style="fill:none;stroke:#9467bd;stroke-linecap:square;stroke-width:2;"/>
   </g>
   <g id="patch_103">
    <path d="M 54 252 
L 54 34.56 
" style="fill:none;stroke:#000000;stroke-linecap:square;stroke-linejoin:miter;stroke-width:0.8;"/>
   </g>
   <g id="patch_104">
    <path d="M 388.8 252 
L 388.8 34.56 
" style="fill:none;stroke:#000000;stroke-linecap:square;stroke-linejoin:miter;stroke-width:0.8;"/>
   </g>
   <g id="patch_105">
    <path d="M 54 252 
L 388.8 252 
" style="fill:none;stroke:#000000;stroke-linecap:square;stroke-linejoin:miter;stroke-width:0.8;"/>
   </g>
   <g id="patch_106">
    <path d="M 54 34.56 
L 388.8 34.56 
" style="fill:none;stroke:#000000;stroke-linecap:square;stroke-linejoin:miter;stroke-width:0.8;"/>
   </g>
   <g id="text_15">
    <!-- Ajuste de densidades para las reclamaciones -->
    <defs>
     <path d="M 34.1875 63.1875 
L 20.796875 26.90625 
L 47.609375 26.90625 
z
M 28.609375 72.90625 
L 39.796875 72.90625 
L 67.578125 0 
L 57.328125 0 
L 50.6875 18.703125 
L 17.828125 18.703125 
L 11.1875 0 
L 0.78125 0 
z
" id="DejaVuSans-65"/>
     <path d="M 9.421875 54.6875 
L 18.40625 54.6875 
L 18.40625 -0.984375 
Q 18.40625 -11.421875 14.421875 -16.109375 
Q 10.453125 -20.796875 1.609375 -20.796875 
L -1.8125 -20.796875 
L -1.8125 -13.1875 
L 0.59375 -13.1875 
Q 5.71875 -13.1875 7.5625 -10.8125 
Q 9.421875 -8.453125 9.421875 -0.984375 
z
M 9.421875 75.984375 
L 18.40625 75.984375 
L 18.40625 64.59375 
L 9.421875 64.59375 
z
" id="DejaVuSans-106"/>
     <path d="M 8.5 21.578125 
L 8.5 54.6875 
L 17.484375 54.6875 
L 17.484375 21.921875 
Q 17.484375 14.15625 20.5 10.265625 
Q 23.53125 6.390625 29.59375 6.390625 
Q 36.859375 6.390625 41.078125 11.03125 
Q 45.3125 15.671875 45.3125 23.6875 
L 45.3125 54.6875 
L 54.296875 54.6875 
L 54.296875 0 
L 45.3125 0 
L 45.3125 8.40625 
Q 42.046875 3.421875 37.71875 1 
Q 33.40625 -1.421875 27.6875 -1.421875 
Q 18.265625 -1.421875 13.375 4.4375 
Q 8.5 10.296875 8.5 21.578125 
z
M 31.109375 56 
z
" id="DejaVuSans-117"/>
     <path d="M 18.109375 8.203125 
L 18.109375 -20.796875 
L 9.078125 -20.796875 
L 9.078125 54.6875 
L 18.109375 54.6875 
L 18.109375 46.390625 
Q 20.953125 51.265625 25.265625 53.625 
Q 29.59375 56 35.59375 56 
Q 45.5625 56 51.78125 48.09375 
Q 58.015625 40.1875 58.015625 27.296875 
Q 58.015625 14.40625 51.78125 6.484375 
Q 45.5625 -1.421875 35.59375 -1.421875 
Q 29.59375 -1.421875 25.265625 0.953125 
Q 20.953125 3.328125 18.109375 8.203125 
z
M 48.6875 27.296875 
Q 48.6875 37.203125 44.609375 42.84375 
Q 40.53125 48.484375 33.40625 48.484375 
Q 26.265625 48.484375 22.1875 42.84375 
Q 18.109375 37.203125 18.109375 27.296875 
Q 18.109375 17.390625 22.1875 11.75 
Q 26.265625 6.109375 33.40625 6.109375 
Q 40.53125 6.109375 44.609375 11.75 
Q 48.6875 17.390625 48.6875 27.296875 
z
" id="DejaVuSans-112"/>
    </defs>
    <g transform="translate(85.869375 28.56)scale(0.12 -0.12)">
     <use xlink:href="#DejaVuSans-65"/>
     <use x="68.408203" xlink:href="#DejaVuSans-106"/>
     <use x="96.191406" xlink:href="#DejaVuSans-117"/>
     <use x="159.570312" xlink:href="#DejaVuSans-115"/>
     <use x="211.669922" xlink:href="#DejaVuSans-116"/>
     <use x="250.878906" xlink:href="#DejaVuSans-101"/>
     <use x="312.402344" xlink:href="#DejaVuSans-32"/>
     <use x="344.189453" xlink:href="#DejaVuSans-100"/>
     <use x="407.666016" xlink:href="#DejaVuSans-101"/>
     <use x="469.189453" xlink:href="#DejaVuSans-32"/>
     <use x="500.976562" xlink:href="#DejaVuSans-100"/>
     <use x="564.453125" xlink:href="#DejaVuSans-101"/>
     <use x="625.976562" xlink:href="#DejaVuSans-110"/>
     <use x="689.355469" xlink:href="#DejaVuSans-115"/>
     <use x="741.455078" xlink:href="#DejaVuSans-105"/>
     <use x="769.238281" xlink:href="#DejaVuSans-100"/>
     <use x="832.714844" xlink:href="#DejaVuSans-97"/>
     <use x="893.994141" xlink:href="#DejaVuSans-100"/>
     <use x="957.470703" xlink:href="#DejaVuSans-101"/>
     <use x="1018.994141" xlink:href="#DejaVuSans-115"/>
     <use x="1071.09375" xlink:href="#DejaVuSans-32"/>
     <use x="1102.880859" xlink:href="#DejaVuSans-112"/>
     <use x="1166.357422" xlink:href="#DejaVuSans-97"/>
     <use x="1227.636719" xlink:href="#DejaVuSans-114"/>
     <use x="1268.75" xlink:href="#DejaVuSans-97"/>
     <use x="1330.029297" xlink:href="#DejaVuSans-32"/>
     <use x="1361.816406" xlink:href="#DejaVuSans-108"/>
     <use x="1389.599609" xlink:href="#DejaVuSans-97"/>
     <use x="1450.878906" xlink:href="#DejaVuSans-115"/>
     <use x="1502.978516" xlink:href="#DejaVuSans-32"/>
     <use x="1534.765625" xlink:href="#DejaVuSans-114"/>
     <use x="1573.628906" xlink:href="#DejaVuSans-101"/>
     <use x="1635.152344" xlink:href="#DejaVuSans-99"/>
     <use x="1690.132812" xlink:href="#DejaVuSans-108"/>
     <use x="1717.916016" xlink:href="#DejaVuSans-97"/>
     <use x="1779.195312" xlink:href="#DejaVuSans-109"/>
     <use x="1876.607422" xlink:href="#DejaVuSans-97"/>
     <use x="1937.886719" xlink:href="#DejaVuSans-99"/>
     <use x="1992.867188" xlink:href="#DejaVuSans-105"/>
     <use x="2020.650391" xlink:href="#DejaVuSans-111"/>
     <use x="2081.832031" xlink:href="#DejaVuSans-110"/>
     <use x="2145.210938" xlink:href="#DejaVuSans-101"/>
     <use x="2206.734375" xlink:href="#DejaVuSans-115"/>
    </g>
   </g>
   <g id="legend_1">
    <g id="patch_107">
     <path d="M 304.828125 101.2725 
L 381.8 101.2725 
Q 383.8 101.2725 383.8 99.2725 
L 383.8 41.56 
Q 383.8 39.56 381.8 39.56 
L 304.828125 39.56 
Q 302.828125 39.56 302.828125 41.56 
L 302.828125 99.2725 
Q 302.828125 101.2725 304.828125 101.2725 
z
" style="fill:#ffffff;opacity:0.8;stroke:#cccccc;stroke-linejoin:miter;"/>
    </g>
    <g id="line2d_29">
     <path d="M 306.828125 47.658437 
L 326.828125 47.658437 
" style="fill:none;stroke:#ff7f0e;stroke-linecap:square;stroke-width:2;"/>
    </g>
    <g id="line2d_30"/>
    <g id="text_16">
     <!-- pareto -->
     <g transform="translate(334.828125 51.158437)scale(0.1 -0.1)">
      <use xlink:href="#DejaVuSans-112"/>
      <use x="63.476562" xlink:href="#DejaVuSans-97"/>
      <use x="124.755859" xlink:href="#DejaVuSans-114"/>
      <use x="163.619141" xlink:href="#DejaVuSans-101"/>
      <use x="225.142578" xlink:href="#DejaVuSans-116"/>
      <use x="264.351562" xlink:href="#DejaVuSans-111"/>
     </g>
    </g>
    <g id="line2d_31">
     <path d="M 306.828125 62.336562 
L 326.828125 62.336562 
" style="fill:none;stroke:#2ca02c;stroke-linecap:square;stroke-width:2;"/>
    </g>
    <g id="line2d_32"/>
    <g id="text_17">
     <!-- gamma -->
     <g transform="translate(334.828125 65.836562)scale(0.1 -0.1)">
      <use xlink:href="#DejaVuSans-103"/>
      <use x="63.476562" xlink:href="#DejaVuSans-97"/>
      <use x="124.755859" xlink:href="#DejaVuSans-109"/>
      <use x="222.167969" xlink:href="#DejaVuSans-109"/>
      <use x="319.580078" xlink:href="#DejaVuSans-97"/>
     </g>
    </g>
    <g id="line2d_33">
     <path d="M 306.828125 77.014687 
L 326.828125 77.014687 
" style="fill:none;stroke:#d62728;stroke-linecap:square;stroke-width:2;"/>
    </g>
    <g id="line2d_34"/>
    <g id="text_18">
     <!-- dweibull -->
     <defs>
      <path d="M 4.203125 54.6875 
L 13.1875 54.6875 
L 24.421875 12.015625 
L 35.59375 54.6875 
L 46.1875 54.6875 
L 57.421875 12.015625 
L 68.609375 54.6875 
L 77.59375 54.6875 
L 63.28125 0 
L 52.6875 0 
L 40.921875 44.828125 
L 29.109375 0 
L 18.5 0 
z
" id="DejaVuSans-119"/>
      <path d="M 48.6875 27.296875 
Q 48.6875 37.203125 44.609375 42.84375 
Q 40.53125 48.484375 33.40625 48.484375 
Q 26.265625 48.484375 22.1875 42.84375 
Q 18.109375 37.203125 18.109375 27.296875 
Q 18.109375 17.390625 22.1875 11.75 
Q 26.265625 6.109375 33.40625 6.109375 
Q 40.53125 6.109375 44.609375 11.75 
Q 48.6875 17.390625 48.6875 27.296875 
z
M 18.109375 46.390625 
Q 20.953125 51.265625 25.265625 53.625 
Q 29.59375 56 35.59375 56 
Q 45.5625 56 51.78125 48.09375 
Q 58.015625 40.1875 58.015625 27.296875 
Q 58.015625 14.40625 51.78125 6.484375 
Q 45.5625 -1.421875 35.59375 -1.421875 
Q 29.59375 -1.421875 25.265625 0.953125 
Q 20.953125 3.328125 18.109375 8.203125 
L 18.109375 0 
L 9.078125 0 
L 9.078125 75.984375 
L 18.109375 75.984375 
z
" id="DejaVuSans-98"/>
     </defs>
     <g transform="translate(334.828125 80.514687)scale(0.1 -0.1)">
      <use xlink:href="#DejaVuSans-100"/>
      <use x="63.476562" xlink:href="#DejaVuSans-119"/>
      <use x="145.263672" xlink:href="#DejaVuSans-101"/>
      <use x="206.787109" xlink:href="#DejaVuSans-105"/>
      <use x="234.570312" xlink:href="#DejaVuSans-98"/>
      <use x="298.046875" xlink:href="#DejaVuSans-117"/>
      <use x="361.425781" xlink:href="#DejaVuSans-108"/>
      <use x="389.208984" xlink:href="#DejaVuSans-108"/>
     </g>
    </g>
    <g id="line2d_35">
     <path d="M 306.828125 91.692813 
L 326.828125 91.692813 
" style="fill:none;stroke:#9467bd;stroke-linecap:square;stroke-width:2;"/>
    </g>
    <g id="line2d_36"/>
    <g id="text_19">
     <!-- gennorm -->
     <g transform="translate(334.828125 95.192813)scale(0.1 -0.1)">
      <use xlink:href="#DejaVuSans-103"/>
      <use x="63.476562" xlink:href="#DejaVuSans-101"/>
      <use x="125" xlink:href="#DejaVuSans-110"/>
      <use x="188.378906" xlink:href="#DejaVuSans-110"/>
      <use x="251.757812" xlink:href="#DejaVuSans-111"/>
      <use x="312.939453" xlink:href="#DejaVuSans-114"/>
      <use x="352.302734" xlink:href="#DejaVuSans-109"/>
     </g>
    </g>
   </g>
  </g>
 </g>
 <defs>
  <clipPath id="pcb26660215">
   <rect height="217.44" width="334.8" x="54" y="34.56"/>
  </clipPath>
 </defs>
</svg>
